<?xml version="1.0" encoding="UTF-8" standalone="no"?><!-- Generator: Gravit.io --><svg xmlns="http://www.w3.org/2000/svg" xmlns:xlink="http://www.w3.org/1999/xlink" style="isolation:isolate" viewBox="0 0 235 70" width="235pt" height="70pt"><defs><clipPath id="_clipPath_P8tDLsMAMGHoB72ZgkKxgS1pd6p4a8DN"><rect width="235" height="70"/></clipPath></defs><g clip-path="url(#_clipPath_P8tDLsMAMGHoB72ZgkKxgS1pd6p4a8DN)"><rect width="235" height="70" style="fill:rgb(0,0,0)"/><text transform="matrix(0.621,0,0,0.621,18.685,53.494)" style="font-family:'Open Sans';font-weight:700;font-size:110px;font-style:normal;fill:#ffffff;stroke:none;">J</text><text transform="matrix(0.621,0,0,0.621,27.377,53.496)" style="font-family:'Open Sans';font-weight:700;font-size:110px;font-style:normal;fill:#ffffff;stroke:none;">J</text><text transform="matrix(0.621,0,0,0.621,80.326,60.018)" style="font-family:'Open Sans';font-weight:700;font-size:110px;font-style:normal;fill:#ffffff;stroke:none;">n</text><text transform="matrix(0.621,0,0,0.621,43.423,60.727)" style="font-family:'Open Sans';font-weight:700;font-size:110px;font-style:normal;fill:#ffffff;stroke:none;">u</text><text transform="matrix(0.621,0.004,-0.004,0.621,121.788,61.708)" style="font-family:'Open Sans';font-weight:700;font-size:110px;font-style:normal;fill:#ffffff;stroke:none;">i</text><text transform="matrix(0.621,0,0,0.621,138.432,61.241)" style="font-family:'Open Sans';font-weight:700;font-size:110px;font-style:normal;fill:#ffffff;stroke:none;">o</text><text transform="matrix(0.621,0,0,0.621,177.614,59.996)" style="font-family:'Open Sans';font-weight:700;font-size:110px;font-style:normal;fill:#ffffff;stroke:none;">r</text><text transform="matrix(0.621,0,0,0.621,206.398,58.494)" style="font-family:'Open Sans';font-weight:700;font-size:110px;font-style:normal;fill:#ffffff;stroke:none;">s</text><rect x="-19" y="3.8" width="58" height="15.2" transform="matrix(1,0,0,1,0,0)" fill="rgb(255,255,255)"/></g></svg>